<svg xmlns="http://www.w3.org/2000/svg" width="160" height="160" viewBox="0 0 160 160"><defs><clipPath id="8uura"><path d="M80 0c44.183 0 80 35.817 80 80 0 44.182-35.817 80-80 80S0 124.181 0 80C0 35.816 35.817 0 80 0zM13.003 80c0 37.001 29.995 66.997 66.997 66.997 37.002 0 66.997-29.996 66.997-66.998 0-37.001-29.995-66.997-66.997-66.997-37.002 0-66.997 29.996-66.997 66.997z"/></clipPath></defs><g><g><g><g><text dominant-baseline="text-before-edge" style="text-transform:uppercase;line-height:18px" fill="#3c4761" font-family="'TitilliumWeb','TitilliumWeb-Light'" font-size="43.19" font-style="none" font-weight="lighter" transform="translate(47 63)"><tspan style="font-kerning:normal" letter-spacing=".86">8</tspan><tspan style="font-kerning:normal" letter-spacing=".86">5</tspan><tspan style="font-kerning:normal" font-size="27.64" letter-spacing=".55">%</tspan></text></g></g><g><path fill="#dfe8ed" d="M80 0c44.183 0 80 35.817 80 80 0 44.182-35.817 80-80 80S0 124.181 0 80C0 35.816 35.817 0 80 0zM13.003 80c0 37.001 29.995 66.997 66.997 66.997 37.002 0 66.997-29.996 66.997-66.998 0-37.001-29.995-66.997-66.997-66.997-37.002 0-66.997 29.996-66.997 66.997z"/></g><g clip-path="url(#8uura)"><path fill="#eb7d4b" d="M80-10.667V20.5s104.55 68.502 34.896 106.072c-102.674 55.38-87.573-76.885-87.573-76.885L3.792 35.364S-8.826 73.396.318 107.487C10.406 145.094 45.222 178.298 113 159.25c60.369-16.966 59.667-91.583 36.667-125.583S80-10.667 80-10.667z"/></g></g></g></svg>