<svg xmlns="http://www.w3.org/2000/svg" width="160" height="160" viewBox="0 0 160 160"><defs><clipPath id="ttioa"><path d="M80 0c44.183 0 80 35.817 80 80 0 44.182-35.817 80-80 80S0 124.181 0 80C0 35.816 35.817 0 80 0zM13.003 80c0 37.001 29.995 66.997 66.997 66.997 37.002 0 66.997-29.996 66.997-66.998 0-37.001-29.995-66.997-66.997-66.997-37.002 0-66.997 29.996-66.997 66.997z"/></clipPath></defs><g><g><g><g><text dominant-baseline="text-before-edge" style="text-transform:uppercase;line-height:18px" fill="#3c4761" font-family="'TitilliumWeb','TitilliumWeb-Light'" font-size="43.19" font-style="none" font-weight="lighter" transform="translate(50 63)"><tspan style="font-kerning:normal" letter-spacing=".86">7</tspan><tspan style="font-kerning:normal" letter-spacing=".86">0</tspan><tspan style="font-kerning:normal" font-size="27.64" letter-spacing=".55">%</tspan></text></g></g><g><path fill="#dfe8ed" d="M80 0c44.183 0 80 35.817 80 80 0 44.182-35.817 80-80 80S0 124.181 0 80C0 35.816 35.817 0 80 0zM13.003 80c0 37.001 29.995 66.997 66.997 66.997 37.002 0 66.997-29.996 66.997-66.998 0-37.001-29.995-66.997-66.997-66.997-37.002 0-66.997 29.996-66.997 66.997z"/></g><g clip-path="url(#ttioa)"><path fill="#15c7a8" d="M80-10.667V20.5s106.167 41.166 40.583 105.416c-50.463 49.438-97.885-20.792-97.885-20.792l-20.031 10.96S39.248 186.472 113 159.248c58.828-21.715 59.667-91.583 36.667-125.583S80-10.667 80-10.667z"/></g></g></g></svg>