<svg xmlns="http://www.w3.org/2000/svg" width="160" height="160" viewBox="0 0 160 160"><defs><clipPath id="l12fa"><path d="M80 0c44.183 0 80 35.817 80 80 0 44.182-35.817 80-80 80S0 124.181 0 80C0 35.816 35.817 0 80 0zM13.002 80c0 37.001 29.996 66.997 66.998 66.997 37.001 0 66.997-29.996 66.997-66.998 0-37.001-29.996-66.997-66.997-66.997-37.002 0-66.998 29.996-66.998 66.997z"/></clipPath></defs><g><g><g><g><text dominant-baseline="text-before-edge" style="text-transform:uppercase;line-height:18px" fill="#3c4761" font-family="'TitilliumWeb','TitilliumWeb-Light'" font-size="43.19" font-style="none" font-weight="lighter" transform="translate(50 64)"><tspan style="font-kerning:normal" letter-spacing=".86">7</tspan><tspan style="font-kerning:normal" letter-spacing=".86">5</tspan><tspan style="font-kerning:normal" font-size="27.64" letter-spacing=".55">%</tspan></text></g></g><g><path fill="#dfe8ed" d="M80 0c44.183 0 80 35.817 80 80 0 44.182-35.817 80-80 80S0 124.181 0 80C0 35.816 35.817 0 80 0zM13.002 80c0 37.001 29.996 66.997 66.998 66.997 37.001 0 66.997-29.996 66.997-66.998 0-37.001-29.996-66.997-66.997-66.997-37.002 0-66.998 29.996-66.998 66.997z"/></g><g clip-path="url(#l12fa)"><path fill="#d74680" d="M80-10.667V20.5s112.067 51.6 36.49 103.729c-77.839 53.687-94.886-44.23-94.886-44.23H-8.188S3.873 193.443 113 159.25c59.839-18.75 59.667-91.583 36.667-125.583S80-10.667 80-10.667z"/></g></g></g></svg>