<svg xmlns="http://www.w3.org/2000/svg" width="160" height="160" viewBox="0 0 160 160"><defs><clipPath id="r7xna"><path d="M80 0c44.183 0 80 35.817 80 80 0 44.182-35.817 80-80 80S0 124.181 0 80C0 35.816 35.817 0 80 0zM13.003 80c0 37.001 29.995 66.997 66.997 66.997 37.002 0 66.997-29.996 66.997-66.998 0-37.001-29.995-66.997-66.997-66.997-37.002 0-66.997 29.996-66.997 66.997z"/></clipPath></defs><g><g><g><g><text dominant-baseline="text-before-edge" style="text-transform:uppercase;line-height:18px" fill="#3c4761" font-family="'TitilliumWeb','TitilliumWeb-Light'" font-size="43.19" font-style="none" font-weight="lighter" transform="translate(48 63)"><tspan style="font-kerning:normal" letter-spacing=".86">9</tspan><tspan style="font-kerning:normal" letter-spacing=".86">0</tspan><tspan style="font-kerning:normal" font-size="27.64" letter-spacing=".55">%</tspan></text></g></g><g><path fill="#dfe8ed" d="M80 0c44.183 0 80 35.817 80 80 0 44.182-35.817 80-80 80S0 124.181 0 80C0 35.816 35.817 0 80 0zM13.003 80c0 37.001 29.995 66.997 66.997 66.997 37.002 0 66.997-29.996 66.997-66.998 0-37.001-29.995-66.997-66.997-66.997-37.002 0-66.997 29.996-66.997 66.997z"/></g><g clip-path="url(#r7xna)"><path fill="#30bae7" d="M80-10.667V20.5s106.167 41.166 40.583 105.416c-27.735 27.171-74.899 19.048-92.75-20.05C6.916 60.052 47.635 32.218 47.635 32.218L29.5 4.791s-57.972 50.962-22.263 120.64C30.832 171.472 86.74 169.141 113 159.25c58.683-22.104 59.667-91.583 36.667-125.583S80-10.667 80-10.667z"/></g></g></g></svg>