<svg xmlns="http://www.w3.org/2000/svg" width="32" height="32" viewBox="0 0 32 32"><g><g><g><path fill="#bdd1df" d="M16 0c8.837 0 16 7.163 16 16 0 8.836-7.163 16-16 16S0 24.836 0 16C0 7.162 7.163 0 16 0z"/></g><g><path fill="#fff" d="M12.464 8.918c0 .974-.7 1.69-1.896 1.69-1.126 0-1.88-.716-1.88-1.69 0-.997.75-1.704 1.9-1.704 1.149 0 1.853.707 1.876 1.704zM8.996 23.01V11.987h3.01V23.01zm5.02-11.023H16.7l.322 1.123c.444-.71 1.406-1.504 3.227-1.504 2.22 0 3.756 1.295 3.756 4.49v6.883h-3v-6.402c0-1.397-.965-2.351-2.187-2.351-.933 0-1.471.643-1.716 1.264-.089.222-.111.533-.111.844v6.645h-2.977z"/></g></g></g></svg>