<svg xmlns="http://www.w3.org/2000/svg" width="32" height="32" viewBox="0 0 32 32"><g><g><g><path fill="#bdd1df" d="M16 0c8.837 0 16 7.163 16 16 0 8.836-7.163 16-16 16S0 24.836 0 16C0 7.162 7.163 0 16 0z"/></g><g><path fill="#fff" d="M8.609 12.178c.487.27 6.238 4.01 6.489 4.15.251.138.577.206.905.206.328 0 .654-.068.905-.207.251-.138 6.002-3.879 6.49-4.149.487-.27.949-1.118.053-1.118H8.555c-.895 0-.434.848.054 1.118zm14.995 2.06c-.554.298-6.357 3.967-6.696 4.15-.34.182-.577.206-.905.206-.328 0-.566-.024-.905-.207-.34-.182-6.142-3.85-6.696-4.15-.39-.209-.386.037-.386.227v7.555c0 .432.557.988.99.988H23c.433 0 .99-.556.99-.988v-7.555c0-.19.004-.436-.386-.226z"/></g></g></g></svg>