<svg xmlns="http://www.w3.org/2000/svg" width="90" height="131" viewBox="0 0 90 131"><defs><clipPath id="1ibbd"><path d="M34.85 30.326s11.172 4.141 21.346 10.015c10.178 5.876 19.357 13.485 19.357 13.485L41.51 113.96s-2.962-4.02-8.526-7.233c-6.562-3.788-14.713.744-14.713.744s.094-9.184-7.065-13.317C5.762 91.01.806 90.459.806 90.459z"/></clipPath><clipPath id="1ibba"><path d="M.807 90.46l3.95 40.16 36.753-16.66S33.69 87.505.807 90.46z"/></clipPath><clipPath id="1ibbc"><path d="M45.307 12.455s11.172 4.14 21.346 10.015C76.831 28.346 86.01 35.955 86.01 35.955l-12.5 21.65-40.703-23.5z"/></clipPath><clipPath id="1ibbb"><path d="M77.658 3.42c11.24 6.49 15.091 20.862 8.602 32.102l-5.5 9.526c-6.49 11.24-20.862 15.09-32.101 8.602-11.24-6.49-15.091-20.862-8.602-32.102l5.5-9.526C52.047.782 66.419-3.069 77.659 3.42z"/></clipPath></defs><g><g><g><path fill="#ffecba" d="M.807 90.46l3.95 40.16 36.753-16.66S33.69 87.505.807 90.46z"/></g><g clip-path="url(#1ibba)"><path fill="#393939" d="M2.663 119.244s5.786.646 13.135 7.583c7.35 6.938-9.541 7.194-9.541 7.194s-8.728-3.884-8.827-4.712c-.1-.827 2.09-9.955 2.09-9.955"/></g><g><path fill="#e88f8d" d="M77.658 3.42c11.24 6.49 15.091 20.862 8.602 32.102l-5.5 9.526c-6.49 11.24-20.862 15.09-32.101 8.602-11.24-6.49-15.091-20.862-8.602-32.102l5.5-9.526C52.047.782 66.419-3.069 77.659 3.42z"/></g><g clip-path="url(#1ibbb)"><path fill="#d97475" d="M78.592 2.804l20.784 12-13.5 23.383-20.784-12z"/></g><g><path fill="#daeaf2" d="M45.307 12.455s11.172 4.14 21.346 10.015C76.831 28.346 86.01 35.955 86.01 35.955l-12.5 21.65-40.703-23.5z"/></g><g clip-path="url(#1ibbc)"><path fill="#bedae8" d="M68.092 20.991l21.65 12.5-13 22.517-21.65-12.5z"/></g><g><path fill="#f1c40f" d="M34.85 30.326s11.172 4.141 21.346 10.015c10.178 5.876 19.357 13.485 19.357 13.485L41.51 113.96s-2.962-4.02-8.526-7.233c-6.562-3.788-14.713.744-14.713.744s.094-9.184-7.065-13.317C5.762 91.01.806 90.459.806 90.459z"/></g><g clip-path="url(#1ibbd)"><path fill="#f39c12" d="M62.592 31.445l23.382 13.5-44 76.21-23.382-13.5z"/></g></g></g></svg>