<svg xmlns="http://www.w3.org/2000/svg" width="159" height="126" viewBox="0 0 159 126"><defs><clipPath id="ct3sa"><path d="M88.779 57.894c-1.621.303-3.373 1.834-3.894 3.4l-1.858 4.535c-.74 1.475-.581 3.796.35 5.157l3.683 5.383c.932 1.36.74 3.43-.427 4.596l-5.658 5.659c-1.167 1.166-3.235 1.358-4.597.426l-5.314-3.636c-1.361-.932-3.679-1.081-5.149-.332l-4.644 1.934c-1.565.526-3.093 2.284-3.397 3.906L56.7 95.188c-.304 1.622-1.903 2.95-3.553 2.95h-8c-1.65 0-3.249-1.328-3.553-2.95l-1.168-6.226c-.303-1.622-1.834-3.374-3.4-3.893l-4.718-1.944c-1.473-.743-3.792-.59-5.153.342l-5.238 3.583c-1.36.932-3.43.74-4.596-.426l-5.658-5.659c-1.167-1.167-1.359-3.235-.427-4.597l3.59-5.248c.932-1.362 1.088-3.682.344-5.155l-1.935-4.704c-.52-1.566-2.273-3.096-3.894-3.4L3.095 56.69C1.474 56.386.147 54.787.147 53.137v-8c0-1.65 1.327-3.249 2.948-3.553l6.246-1.171c1.621-.304 3.373-1.834 3.894-3.4l1.934-4.703c.744-1.473.588-3.793-.343-5.155l-3.591-5.25c-.932-1.361-.74-3.43.427-4.597l5.657-5.657c1.167-1.167 3.235-1.36 4.596-.428l5.239 3.584c1.361.932 3.68 1.086 5.153.342l4.719-1.945c1.566-.519 3.097-2.27 3.4-3.893l1.168-6.225c.304-1.622 1.903-2.95 3.553-2.95h8c1.65 0 3.249 1.328 3.553 2.95l1.174 6.266c.304 1.621 1.832 3.38 3.397 3.905l4.645 1.935c1.47.749 3.788.6 5.149-.332l5.313-3.636c1.362-.932 3.431-.74 4.597.427l5.658 5.658c1.166 1.166 1.359 3.235.427 4.596l-3.683 5.382c-.931 1.362-1.09 3.683-.35 5.158l1.858 4.536c.52 1.566 2.273 3.095 3.894 3.4l6.42 1.203c1.62.305 2.948 1.903 2.948 3.553v8c0 1.65-1.327 3.25-2.948 3.553zm-26.775-8.757c0-7.164-5.793-12.972-12.94-12.972-7.148 0-12.94 5.808-12.94 12.972s5.792 12.972 12.94 12.972c7.147 0 12.94-5.808 12.94-12.972zm85.756 50.26c-.555 1.554-.248 3.94.684 5.301l3.46 5.058c.931 1.362.74 3.43-.427 4.597l-5.139 5.139c-1.167 1.166-3.235 1.358-4.596.427l-5.107-3.494c-1.361-.932-3.747-1.24-5.3-.685l-4.174 1.068c-1.632.246-3.551 1.665-4.265 3.152l-1.854 3.865c-.712 1.488-2.6 2.355-4.194 1.928l-7.02-1.88c-1.594-.427-2.794-2.123-2.668-3.768l.338-4.411c.125-1.645-.853-3.799-2.176-4.785 0 0-.31-.23-1.541-1.462-1.314-1.314-1.673-1.804-1.673-1.804-.976-1.33-3.12-2.316-4.765-2.19l-4.49.344c-1.646.127-3.34-1.075-3.768-2.668l-1.88-7.02c-.427-1.593.441-3.481 1.928-4.195l4.163-1.996c1.489-.714 2.912-2.631 3.166-4.262l.753-3.032c.527-1.563.196-3.956-.736-5.318l-2.835-4.144c-.932-1.362-.74-3.43.427-4.598l5.138-5.138c1.168-1.167 3.236-1.36 4.597-.428l3.516 2.406c1.361.932 3.718 1.165 5.236.52l3.944-1.27c1.614-.347 3.518-1.847 4.232-3.335l2.161-4.507c.714-1.488 2.602-2.356 4.195-1.929l7.02 1.881c1.594.427 2.794 2.123 2.668 3.768l-.309 4.038c-.126 1.645.888 3.749 2.253 4.675 0 0 1.194.811 2.821 2.438l1 .999c.94 1.19 3.055 2.061 4.7 1.935l5.853-.449c1.646-.126 3.341 1.075 3.768 2.669l1.88 7.02c.427 1.593-.44 3.481-1.928 4.195l-4.737 2.271c-1.488.713-2.892 2.635-3.12 4.268zm-19.181-14.75c-3.275-3.275-8.579-3.28-11.846-.012-3.269 3.268-3.262 8.57.013 11.846 3.276 3.275 8.579 3.281 11.846.013 3.268-3.266 3.261-8.57-.013-11.846z"/></clipPath></defs><g><g><g><path fill="#487fbc" d="M88.779 57.894c-1.621.303-3.373 1.834-3.894 3.4l-1.858 4.535c-.74 1.475-.581 3.796.35 5.157l3.683 5.383c.932 1.36.74 3.43-.427 4.596l-5.658 5.659c-1.167 1.166-3.235 1.358-4.597.426l-5.314-3.636c-1.361-.932-3.679-1.081-5.149-.332l-4.644 1.934c-1.565.526-3.093 2.284-3.397 3.906L56.7 95.188c-.304 1.622-1.903 2.95-3.553 2.95h-8c-1.65 0-3.249-1.328-3.553-2.95l-1.168-6.226c-.303-1.622-1.834-3.374-3.4-3.893l-4.718-1.944c-1.473-.743-3.792-.59-5.153.342l-5.238 3.583c-1.36.932-3.43.74-4.596-.426l-5.658-5.659c-1.167-1.167-1.359-3.235-.427-4.597l3.59-5.248c.932-1.362 1.088-3.682.344-5.155l-1.935-4.704c-.52-1.566-2.273-3.096-3.894-3.4L3.095 56.69C1.474 56.386.147 54.787.147 53.137v-8c0-1.65 1.327-3.249 2.948-3.553l6.246-1.171c1.621-.304 3.373-1.834 3.894-3.4l1.934-4.703c.744-1.473.588-3.793-.343-5.155l-3.591-5.25c-.932-1.361-.74-3.43.427-4.597l5.657-5.657c1.167-1.167 3.235-1.36 4.596-.428l5.239 3.584c1.361.932 3.68 1.086 5.153.342l4.719-1.945c1.566-.519 3.097-2.27 3.4-3.893l1.168-6.225c.304-1.622 1.903-2.95 3.553-2.95h8c1.65 0 3.249 1.328 3.553 2.95l1.174 6.266c.304 1.621 1.832 3.38 3.397 3.905l4.645 1.935c1.47.749 3.788.6 5.149-.332l5.313-3.636c1.362-.932 3.431-.74 4.597.427l5.658 5.658c1.166 1.166 1.359 3.235.427 4.596l-3.683 5.382c-.931 1.362-1.09 3.683-.35 5.158l1.858 4.536c.52 1.566 2.273 3.095 3.894 3.4l6.42 1.203c1.62.305 2.948 1.903 2.948 3.553v8c0 1.65-1.327 3.25-2.948 3.553zm-26.775-8.757c0-7.164-5.793-12.972-12.94-12.972-7.148 0-12.94 5.808-12.94 12.972s5.792 12.972 12.94 12.972c7.147 0 12.94-5.808 12.94-12.972zm85.756 50.26c-.555 1.554-.248 3.94.684 5.301l3.46 5.058c.931 1.362.74 3.43-.427 4.597l-5.139 5.139c-1.167 1.166-3.235 1.358-4.596.427l-5.107-3.494c-1.361-.932-3.747-1.24-5.3-.685l-4.174 1.068c-1.632.246-3.551 1.665-4.265 3.152l-1.854 3.865c-.712 1.488-2.6 2.355-4.194 1.928l-7.02-1.88c-1.594-.427-2.794-2.123-2.668-3.768l.338-4.411c.125-1.645-.853-3.799-2.176-4.785 0 0-.31-.23-1.541-1.462-1.314-1.314-1.673-1.804-1.673-1.804-.976-1.33-3.12-2.316-4.765-2.19l-4.49.344c-1.646.127-3.34-1.075-3.768-2.668l-1.88-7.02c-.427-1.593.441-3.481 1.928-4.195l4.163-1.996c1.489-.714 2.912-2.631 3.166-4.262l.753-3.032c.527-1.563.196-3.956-.736-5.318l-2.835-4.144c-.932-1.362-.74-3.43.427-4.598l5.138-5.138c1.168-1.167 3.236-1.36 4.597-.428l3.516 2.406c1.361.932 3.718 1.165 5.236.52l3.944-1.27c1.614-.347 3.518-1.847 4.232-3.335l2.161-4.507c.714-1.488 2.602-2.356 4.195-1.929l7.02 1.881c1.594.427 2.794 2.123 2.668 3.768l-.309 4.038c-.126 1.645.888 3.749 2.253 4.675 0 0 1.194.811 2.821 2.438l1 .999c.94 1.19 3.055 2.061 4.7 1.935l5.853-.449c1.646-.126 3.341 1.075 3.768 2.669l1.88 7.02c.427 1.593-.44 3.481-1.928 4.195l-4.737 2.271c-1.488.713-2.892 2.635-3.12 4.268zm-19.181-14.75c-3.275-3.275-8.579-3.28-11.846-.012-3.269 3.268-3.262 8.57.013 11.846 3.276 3.275 8.579 3.281 11.846.013 3.268-3.266 3.261-8.57-.013-11.846z"/></g><g clip-path="url(#ct3sa)"><path fill="#daeaf2" d="M131.624 99.516c-4.937 4.936-12.947 4.928-17.897-.02-4.946-4.949-4.957-12.96-.019-17.896 4.936-4.936 12.948-4.928 17.895.02 4.946 4.95 4.957 12.961.02 17.896zm-82.56-31.894c-10.182 0-18.435-8.274-18.435-18.48 0-10.206 8.253-18.48 18.436-18.48 10.182 0 18.435 8.274 18.435 18.48 0 10.206-8.253 18.48-18.435 18.48z"/></g><g clip-path="url(#ct3sa)" opacity=".2"><path fill="#00234a" d="M14 14l70 70s-37 37-71 0 1-70 1-70zm81 51l55 53s-25.96 24.956-52 1c-25-23-3-54-3-54z"/></g></g></g></svg>