<svg xmlns="http://www.w3.org/2000/svg" width="117" height="37" viewBox="0 0 117 37"><g><g><path fill="#fff" d="M16.762 36.988c-10.038.335-16.78-5.591-16.78-15.946C-.017 8.928 8.31.573 20.683.71c6.02.066 10.189 2.051 12.042 3.308l-3.353 7.631c-1.501-.725-4.323-1.235-6.704-1.235-6.11 0-9.092 3.965-9.263 9.087-.176 5.293 3.095 8.798 7.94 9.263 4.787.46 8.209-.642 10.302-1.563l1.871-13.206h10.248l-1.822 12.831c-.169 1.143.551 2.075 1.61 2.075 1.016 0 1.99-.932 2.16-2.075l1.82-12.831h10.248l-1.99 14.27c-.243 1.739.361 2.843 4.098 1.329a15.227 15.227 0 0 1-.203-2.514c0-7.75 4.954-13.636 11.136-13.636 2.456 0 4.108 1.059 5.336 2.753l1.524-11.052H87.93l-3.26 23.29c-.207 1.615.51 2.832 4.5.742a15.46 15.46 0 0 1-.14-2.097c0-7.58 4.954-13.636 11.137-13.636 2.456 0 4.107 1.059 5.336 2.753l.296-2.202h10.248l-2.033 14.44c-.212 1.652.805 1.948 2.371 1.567l-.361 4.385c-2.184 1.72-4.339 2.602-6.456 2.602-3.134 0-5.124-1.44-5.802-3.515-1.778 2.118-4.022 3.515-7.24 3.515-2.445 0-4.36-1.17-5.643-3.058-1.811 1.034-5.81 3.122-10.66 3.058-3.133-.042-5.124-1.44-5.801-3.515-1.779 2.075-3.938 3.515-7.241 3.515-2.403 0-4.295-1.13-5.577-2.961-5.077 2.351-8.191 2.96-10.26 2.96-3.218 0-5.124-1.312-5.843-3.217-2.33 2.16-4.785 3.218-7.58 3.218-3.182 0-5.47-1.66-6.306-4.21-4.798 2.545-9.176 4.02-14.853 4.21zM75.777 24.58c0-1.779-.974-3.176-2.499-3.176-1.99 0-3.557 2.032-3.557 4.362 0 1.777.932 3.175 2.499 3.175 1.948 0 3.557-2.032 3.557-4.361zm29.345 0c0-1.779-.974-3.176-2.5-3.176-1.99 0-3.556 2.032-3.556 4.362 0 1.777.932 3.175 2.498 3.175 1.948 0 3.558-2.032 3.558-4.361z"/></g></g></svg>