<svg xmlns="http://www.w3.org/2000/svg" width="95" height="133" viewBox="0 0 95 133"><defs><clipPath id="46o7a"><path d="M91.498 4.566c-.6-1.811-1.01-3.432-.913-3.6.097-.167.13-.298.076-.29-.055.009-.492-.04-.549-.185-.056-.145-.185-.121-.285.053-.1.174-1.706.662-3.567 1.084 0 0-35.111 7.963-50.811 36.715-17.466 31.987-16.15 53.78-16.15 53.78-.038 1.908 1.283 4.249 2.936 5.204l5.78 3.337a13293.496 13293.496 0 0 1 6.762 3.903l6.139 3.545c1.653.954 4.36.959 6.016.01 0 0 18.56-10.363 37.528-41.482 17.083-28.027 7.038-62.074 7.038-62.074z"/></clipPath></defs><g><g><g><path fill="#3a6da5" d="M48.105 107.999s1.607 1.216 1.69 3.574c.082 2.357-.56 17.575-.56 17.575s14.43-17 18.606-22.283c3.442-4.355 4.047-12.56-2.132-17.858-6.178-5.3-17.604 18.992-17.604 18.992z"/></g><g><path fill="#487fbc" d="M18.958 91.171s-1.857-.783-3.94.324-14.94 9.271-14.94 9.271 7.507-20.996 9.994-27.254c2.05-5.158 8.853-9.784 16.531-7.083 7.678 2.7-7.645 24.742-7.645 24.742z"/></g><g><path fill="#d97475" d="M26.08 96.149l13.856 8a3.5 3.5 0 0 1-3.5 6.062l-13.857-8a3.5 3.5 0 1 1 3.5-6.062z"/></g><g><path fill="#f1c40f" d="M29.806 108.693a8 8 0 0 1 2.929 10.928c-2.21 3.826-17.076 13.518-17.076 13.518s1.01-17.692 3.22-21.518a8 8 0 0 1 10.927-2.928z"/></g><g><path fill="#daeaf2" d="M91.498 4.566c-.6-1.811-1.01-3.432-.913-3.6.097-.167.13-.298.076-.29-.055.009-.492-.04-.549-.185-.056-.145-.185-.121-.285.053-.1.174-1.706.662-3.567 1.084 0 0-35.111 7.963-50.811 36.715-17.466 31.987-16.15 53.78-16.15 53.78-.038 1.908 1.283 4.249 2.936 5.204l5.78 3.337a13293.496 13293.496 0 0 1 6.762 3.903l6.139 3.545c1.653.954 4.36.959 6.016.01 0 0 18.56-10.363 37.528-41.482 17.083-28.027 7.038-62.074 7.038-62.074z"/></g><g clip-path="url(#46o7a)"><path fill="#bedae8" d="M91.44-.06l25.115 14.5-61 105.654-25.115-14.5z"/></g><g clip-path="url(#46o7a)"><path fill="#d84848" d="M92.952-2.678l15.6 8.981-13 22.517s-6.806-6.053-14.617-10.685z"/></g><g clip-path="url(#46o7a)"><path fill="#f57b71" d="M80.935 18.135c-.232-.138-.462-.279-.696-.413-7.92-4.573-16.73-7.402-16.73-7.402l12.977-22.478 16.466 9.48z"/></g><g><path fill="#fff" d="M70.99 34.361c7.875 4.547 10.573 14.616 6.026 22.492-4.546 7.875-14.616 10.573-22.491 6.026-7.875-4.546-10.573-14.617-6.027-22.492 4.547-7.875 14.617-10.573 22.492-6.026z"/></g><g><path fill="#5ad2eb" d="M69.007 37.795c5.979 3.452 8.027 11.097 4.576 17.075-3.452 5.979-11.097 8.027-17.076 4.575-5.978-3.451-8.027-11.096-4.575-17.075 3.452-5.978 11.097-8.027 17.075-4.575z"/></g></g></g></svg>